<svg width="24" height="48" viewBox="0 0 24 48" fill="none" xmlns="http://www.w3.org/2000/svg">
<path d="M10.25 40C11.7833 40 13.0833 39.4667 14.15 38.4C15.2167 37.3333 15.75 36.0333 15.75 34.5V29.5C15.75 28.8 15.9917 28.2083 16.475 27.725C16.9583 27.2417 17.55 27 18.25 27C18.65 27 19 26.85 19.3 26.55C19.6 26.25 19.75 25.9 19.75 25.5V22.5C19.75 22.0667 19.6 21.7083 19.3 21.425C19 21.1417 18.65 21 18.25 21C17.55 21 16.9583 20.7583 16.475 20.275C15.9917 19.7917 15.75 19.2 15.75 18.5V13.5C15.75 11.9667 15.2167 10.6667 14.15 9.6C13.0833 8.53333 11.7833 8 10.25 8H5.75C5.31667 8 4.95833 8.14167 4.675 8.425C4.39167 8.70833 4.25 9.06667 4.25 9.5C4.25 9.93333 4.39167 10.2917 4.675 10.575C4.95833 10.8583 5.31667 11 5.75 11H10.25C10.95 11 11.5417 11.2417 12.025 11.725C12.5083 12.2083 12.75 12.8 12.75 13.5V18.5C12.75 19.7333 13.125 20.8417 13.875 21.825C14.625 22.8083 15.5833 23.4667 16.75 23.8V24.2C15.5833 24.5667 14.625 25.2333 13.875 26.2C13.125 27.1667 12.75 28.2667 12.75 29.5V34.5C12.75 35.2 12.5083 35.7917 12.025 36.275C11.5417 36.7583 10.95 37 10.25 37H5.75C5.31667 37 4.95833 37.1417 4.675 37.425C4.39167 37.7083 4.25 38.0667 4.25 38.5C4.25 38.9333 4.39167 39.2917 4.675 39.575C4.95833 39.8583 5.31667 40 5.75 40H10.25Z" fill="#FEFEFE"/>
</svg>
