<svg width="24" height="48" viewBox="0 0 24 48" fill="none" xmlns="http://www.w3.org/2000/svg">
<path d="M13.75 40C12.2167 40 10.9167 39.4667 9.85 38.4C8.78333 37.3333 8.25 36.0333 8.25 34.5V29.5C8.25 28.8 8.00833 28.2083 7.525 27.725C7.04167 27.2417 6.45 27 5.75 27C5.35 27 5 26.85 4.7 26.55C4.4 26.25 4.25 25.9 4.25 25.5V22.5C4.25 22.0667 4.4 21.7083 4.7 21.425C5 21.1417 5.35 21 5.75 21C6.45 21 7.04167 20.7583 7.525 20.275C8.00833 19.7917 8.25 19.2 8.25 18.5V13.5C8.25 11.9667 8.78333 10.6667 9.85 9.6C10.9167 8.53333 12.2167 8 13.75 8H18.25C18.6833 8 19.0417 8.14167 19.325 8.425C19.6083 8.70833 19.75 9.06667 19.75 9.5C19.75 9.93333 19.6083 10.2917 19.325 10.575C19.0417 10.8583 18.6833 11 18.25 11H13.75C13.05 11 12.4583 11.2417 11.975 11.725C11.4917 12.2083 11.25 12.8 11.25 13.5V18.5C11.25 19.7333 10.875 20.8417 10.125 21.825C9.375 22.8083 8.41667 23.4667 7.25 23.8V24.2C8.41667 24.5667 9.375 25.2333 10.125 26.2C10.875 27.1667 11.25 28.2667 11.25 29.5V34.5C11.25 35.2 11.4917 35.7917 11.975 36.275C12.4583 36.7583 13.05 37 13.75 37H18.25C18.6833 37 19.0417 37.1417 19.325 37.425C19.6083 37.7083 19.75 38.0667 19.75 38.5C19.75 38.9333 19.6083 39.2917 19.325 39.575C19.0417 39.8583 18.6833 40 18.25 40H13.75Z" fill="#FEFEFE"/>
</svg>
