<?xml version="1.0" encoding="utf-8"?>
<!-- Generator: Adobe Illustrator 26.2.1, SVG Export Plug-In . SVG Version: 6.00 Build 0)  -->
<svg version="1.1" id="Layer_1" xmlns="http://www.w3.org/2000/svg" xmlns:xlink="http://www.w3.org/1999/xlink" x="0px" y="0px"
	 viewBox="0 0 851.2 493" style="enable-background:new 0 0 851.2 493;" xml:space="preserve">
<style type="text/css">
	.st0{fill:#FFFFFF;}
</style>
<g id="a-2">
	<path class="st0" d="M481.1,431.2h5.6c1.5-0.1,3,0.3,4.3,1.2c1,0.9,1.6,2.2,1.5,3.5c0.1,1.3-0.4,2.7-1.3,3.7c-1,1-2.3,1.6-3.7,1.8
		v0.1c2.2,0.4,3.8,2.4,3.7,4.7c0.1,1.8-0.7,3.6-2.1,4.8c-1.6,1.2-3.7,1.9-5.7,1.7h-6.7L481.1,431.2z M480.3,442.1l-2,9.3h5
		c1.6,0.1,3.2-0.4,4.5-1.3c1.1-0.9,1.7-2.3,1.6-3.8c0.1-1.2-0.4-2.4-1.3-3.2c-1.2-0.8-2.6-1.1-4-1H480.3z M480.6,440.8h4.1
		c1.6,0.1,3.2-0.3,4.6-1.2c1.1-0.8,1.7-2.1,1.6-3.5c0.1-1-0.4-2-1.1-2.7c-1-0.7-2.2-1-3.4-0.9h-4L480.6,440.8z"/>
	<path class="st0" d="M494.5,436.7h1.5l1.2,8.1c0.5,3.4,0.8,5.6,0.8,6.6h0.2c0.4-1,1.3-2.8,2.7-5.4l5.1-9.3h1.5l-10.5,19
		c-0.5,0.9-1.1,1.8-1.8,2.6c-0.5,0.5-1.1,0.9-1.7,1.2c-0.7,0.3-1.4,0.5-2.1,0.4c-0.6,0-1.3-0.1-1.9-0.3v-1.4c0.6,0.3,1.3,0.4,2,0.4
		c0.8,0,1.5-0.3,2.2-0.7c0.8-0.7,1.4-1.5,1.9-2.4c0.6-1.1,1.1-2,1.5-2.7L494.5,436.7z"/>
	<path class="st0" d="M526.2,446.8h-7.1l-3.1,6h-3.7l11.5-21.5h4l2.4,21.5h-3.4L526.2,446.8z M526,443.7c-0.4-4.1-0.6-6.5-0.7-7.4
		c-0.1-0.9-0.1-1.5-0.1-2c-0.5,1.3-1.2,2.8-2.1,4.5l-2.5,4.9H526z"/>
	<path class="st0" d="M536,452.7h-3.4l4.9-22.9h3.5L536,452.7z"/>
	<path class="st0" d="M547.6,436.5l-1.9,9c-0.2,0.9-0.4,1.9-0.5,2.8c0,1.3,0.6,2,1.9,2c0.8,0,1.5-0.3,2.1-0.8
		c0.8-0.7,1.4-1.5,1.9-2.5c0.6-1.2,1-2.4,1.2-3.6l1.5-6.9h3.4l-3.4,16.3h-2.7l0.3-3h-0.1c-0.7,1-1.5,1.9-2.5,2.5
		c-0.8,0.5-1.8,0.8-2.8,0.8c-1.1,0.1-2.2-0.3-3-1.1c-0.8-0.9-1.1-2-1.1-3.2c0-0.6,0.1-1.2,0.2-1.8c0.1-0.6,0.2-1.2,0.3-1.8l1.8-8.6
		L547.6,436.5z"/>
	<path class="st0" d="M569.7,436.2c0.5,0,1.1,0.1,1.6,0.2l-0.8,3.2c-0.5-0.1-1-0.2-1.5-0.2c-1.3,0-2.5,0.6-3.3,1.7
		c-1,1.3-1.7,2.8-2,4.4l-1.6,7.4h-3.5l3.5-16.3h2.7l-0.3,3h0.1c0.6-1,1.5-1.9,2.4-2.5C567.9,436.4,568.8,436.2,569.7,436.2z"/>
	<path class="st0" d="M576.1,453c-1.3,0.1-2.5-0.5-3.3-1.5c-0.9-1.2-1.3-2.7-1.2-4.2c0-1.9,0.3-3.8,1-5.6c0.6-1.6,1.6-3,2.8-4.1
		c1.1-1,2.5-1.5,4-1.5c0.9,0,1.7,0.2,2.5,0.7c0.7,0.5,1.3,1.2,1.6,2h0.2l0.9-2.3h2.7l-3.5,16.3H581l0.3-2.6h-0.1
		C579.7,452.1,578,453,576.1,453z M577.4,450.2c0.9-0.1,1.8-0.5,2.4-1.1c0.8-0.9,1.5-1.9,1.9-3.1c0.5-1.3,0.8-2.8,0.8-4.2
		c0-0.8-0.2-1.5-0.7-2.1c-0.5-0.5-1.1-0.8-1.8-0.8c-0.9,0-1.8,0.4-2.4,1.1c-0.8,0.9-1.4,1.9-1.8,3.1c-0.4,1.3-0.7,2.6-0.7,4
		c-0.1,0.8,0.2,1.6,0.6,2.2C576.1,450,576.7,450.3,577.4,450.2L577.4,450.2z"/>
	<path class="st0" d="M612.8,437.1c0.1,2.2-0.8,4.2-2.5,5.6c-2,1.4-4.5,2.1-7,2h-1.6l-1.7,8h-3.5l4.5-21.5h4.9
		c1.8-0.1,3.6,0.4,5.1,1.5C612.3,433.9,612.9,435.5,612.8,437.1z M602.4,441.7h1.4c1.4,0.1,2.9-0.3,4-1.2c1-0.8,1.5-2,1.4-3.3
		c0.1-0.9-0.2-1.7-0.9-2.3c-0.8-0.5-1.7-0.8-2.6-0.7H604L602.4,441.7z"/>
	<path class="st0" d="M618.7,453c-1.3,0.1-2.5-0.5-3.3-1.5c-0.9-1.2-1.3-2.7-1.2-4.2c0-1.9,0.3-3.8,1-5.6c0.6-1.6,1.5-3,2.8-4.1
		c1.1-1,2.5-1.5,3.9-1.5c0.9,0,1.7,0.2,2.5,0.7c0.7,0.5,1.3,1.2,1.6,2h0.2l0.9-2.3h2.7l-3.5,16.3h-2.7l0.3-2.6h-0.1
		C622.3,452.1,620.6,453,618.7,453z M620,450.2c0.9-0.1,1.8-0.5,2.4-1.1c0.8-0.9,1.5-1.9,1.9-3.1c0.5-1.3,0.8-2.8,0.8-4.2
		c0-0.8-0.2-1.5-0.7-2.1c-0.5-0.5-1.1-0.8-1.8-0.8c-0.9,0-1.8,0.4-2.3,1.1c-0.8,0.9-1.4,1.9-1.8,3.1c-0.4,1.3-0.7,2.6-0.7,4
		c-0.1,0.8,0.2,1.6,0.6,2.2C618.7,450,619.3,450.3,620,450.2L620,450.2z"/>
	<path class="st0" d="M642,436.2c0.5,0,1.1,0.1,1.6,0.2l-0.8,3.2c-0.5-0.1-1-0.2-1.5-0.2c-1.3,0-2.5,0.6-3.3,1.6
		c-1,1.3-1.7,2.8-2,4.4l-1.6,7.4H631l3.5-16.3h2.7l-0.3,3h0.1c0.6-1,1.5-1.9,2.5-2.5C640.2,436.4,641.1,436.2,642,436.2z"/>
	<path class="st0" d="M648.5,453c-1.3,0.1-2.5-0.5-3.3-1.5c-0.9-1.2-1.3-2.7-1.2-4.2c0-1.9,0.3-3.8,1-5.6c0.6-1.6,1.5-3,2.8-4.1
		c1.1-1,2.5-1.5,4-1.5c0.9,0,1.7,0.2,2.5,0.7c0.7,0.5,1.3,1.2,1.6,2h0.2l0.9-2.3h2.7l-3.5,16.3h-2.7l0.3-2.6h-0.1
		C652,452.1,650.3,453,648.5,453z M649.7,450.2c0.9-0.1,1.8-0.5,2.4-1.1c0.8-0.9,1.5-1.9,1.9-3.1c0.5-1.3,0.8-2.8,0.8-4.2
		c0-0.8-0.2-1.5-0.7-2.1c-0.5-0.5-1.1-0.8-1.8-0.8c-0.9,0-1.8,0.4-2.4,1.1c-0.8,0.9-1.4,1.9-1.8,3.1c-0.4,1.3-0.7,2.6-0.7,4
		c-0.1,0.8,0.1,1.6,0.6,2.2C648.4,449.9,649.1,450.3,649.7,450.2L649.7,450.2z"/>
	<path class="st0" d="M680.3,452.7h-11.4l4.5-21.5h11.4l-0.6,3h-7.9l-1.2,5.8h7.4l-0.6,3h-7.4l-1.4,6.7h8L680.3,452.7z"/>
	<path class="st0" d="M695.6,436.2c2.2,0,3.4,1.2,3.7,3.5h0.1c0.6-1.1,1.5-2,2.5-2.6c0.9-0.6,1.9-0.9,2.9-0.9c1.1-0.1,2.2,0.3,3,1.1
		c0.7,0.9,1.1,2,1,3.2c0,0.9-0.1,1.8-0.3,2.7l-2.1,9.6H703l2.1-9.9c0.2-0.7,0.2-1.3,0.3-2c0-1.3-0.6-1.9-1.8-1.9
		c-1.2,0.1-2.4,0.8-3,1.8c-1,1.4-1.7,3.1-2,4.8l-1.5,7.1h-3.5l2.1-9.9c0.1-0.6,0.2-1.2,0.2-1.9c0-1.3-0.6-2-1.7-2
		c-1.2,0.1-2.4,0.8-3,1.9c-1,1.5-1.7,3.2-2,5l-1.4,6.9h-3.5l3.5-16.3h2.7l-0.3,3h0.1C691.9,437.2,693.6,436.2,695.6,436.2z"/>
	<path class="st0" d="M719,453c-1.7,0-3.3-1-4-2.6h-0.1c-0.1,0.9-0.2,1.8-0.4,2.7l-1.4,6.9h-3.4l5-23.5h2.7l-0.3,2.8h0.1
		c1.5-2,3.2-3.1,5.1-3.1c1.3-0.1,2.5,0.5,3.3,1.5c0.9,1.2,1.3,2.7,1.2,4.2c0,1.9-0.3,3.8-1,5.6c-0.6,1.6-1.5,3-2.8,4.1
		C721.9,452.5,720.4,453,719,453z M721,439c-0.9,0.1-1.8,0.5-2.4,1.2c-0.8,0.9-1.5,1.9-1.9,3.1c-0.5,1.3-0.7,2.6-0.7,4
		c-0.1,0.8,0.2,1.6,0.7,2.2c0.5,0.5,1.2,0.8,1.9,0.8c0.9,0,1.8-0.5,2.3-1.2c0.8-0.9,1.3-2,1.7-3.1c0.4-1.3,0.6-2.6,0.6-4
		C723.2,440,722.5,439,721,439z"/>
	<path class="st0" d="M739.9,436.2c0.5,0,1.1,0.1,1.6,0.2l-0.8,3.2c-0.5-0.1-1-0.2-1.5-0.2c-1.3,0-2.5,0.6-3.3,1.6
		c-1,1.3-1.7,2.8-2,4.4l-1.6,7.4h-3.5l3.5-16.3h2.7l-0.3,3h0.1c0.6-1,1.5-1.9,2.5-2.5C738.1,436.4,739,436.2,739.9,436.2z"/>
	<path class="st0" d="M748,453c-1.7,0.1-3.3-0.5-4.5-1.6c-1.1-1.2-1.7-2.9-1.6-4.6c0-1.9,0.4-3.7,1.1-5.4c0.7-1.5,1.7-2.9,3.1-3.9
		c1.3-0.9,2.8-1.4,4.4-1.4c1.3-0.1,2.6,0.3,3.7,1.1c0.9,0.7,1.4,1.9,1.3,3c0,1.7-0.9,3.4-2.5,4.2c-2.2,1.1-4.6,1.6-7,1.5h-0.6v0.5
		v0.4c-0.1,0.9,0.2,1.8,0.8,2.6c0.6,0.7,1.6,1,2.5,0.9c0.7,0,1.4-0.1,2.1-0.3c0.9-0.3,1.7-0.6,2.5-1v2.8c-0.8,0.4-1.7,0.7-2.6,0.9
		C749.8,452.9,748.9,453,748,453z M750.2,438.8c-1,0-2,0.5-2.7,1.3c-0.9,0.9-1.5,2.1-1.8,3.3h0.4c1.5,0.1,3-0.2,4.3-0.8
		c0.9-0.4,1.5-1.2,1.6-2.2c0-0.4-0.1-0.9-0.5-1.2C751.2,438.9,750.7,438.8,750.2,438.8L750.2,438.8z"/>
	<path class="st0" d="M767.8,447.7c0.1,1.5-0.6,3-1.7,3.9c-1.4,1-3.1,1.5-4.8,1.4c-1.6,0-3.3-0.3-4.7-1v-3c1.4,0.8,3,1.3,4.6,1.3
		c0.8,0,1.6-0.2,2.3-0.6c0.6-0.3,0.9-1,0.9-1.6c0-0.5-0.2-0.9-0.5-1.3c-0.6-0.6-1.3-1.1-2.1-1.4c-1-0.5-1.9-1.2-2.6-2
		c-0.5-0.7-0.8-1.6-0.8-2.4c-0.1-1.4,0.5-2.7,1.6-3.6c1.2-0.9,2.7-1.4,4.3-1.3c1.8,0,3.5,0.4,5.1,1.2l-1.1,2.6
		c-1.2-0.7-2.5-1.1-3.9-1.1c-0.6,0-1.2,0.1-1.7,0.5c-0.4,0.3-0.7,0.8-0.7,1.4c0,0.4,0.2,0.9,0.5,1.2c0.6,0.5,1.3,1,2,1.3
		c0.8,0.4,1.5,0.9,2.2,1.5c0.4,0.4,0.8,0.8,1,1.4C767.7,446.6,767.8,447.2,767.8,447.7z"/>
	<path class="st0" d="M775.7,453c-1.3,0.1-2.5-0.5-3.3-1.5c-0.9-1.2-1.3-2.7-1.2-4.2c0-1.9,0.3-3.8,1-5.6c0.6-1.6,1.5-3,2.8-4.1
		c1.1-1,2.5-1.5,3.9-1.5c0.9,0,1.7,0.2,2.5,0.7c0.7,0.5,1.3,1.2,1.6,2h0.2l0.9-2.3h2.7l-3.5,16.3h-2.7l0.3-2.6h-0.1
		C779.3,452.1,777.6,453,775.7,453z M777,450.2c0.9-0.1,1.8-0.5,2.4-1.1c0.8-0.9,1.5-1.9,1.9-3.1c0.5-1.3,0.8-2.8,0.8-4.2
		c0-0.8-0.2-1.5-0.7-2.1c-0.5-0.5-1.1-0.8-1.8-0.8c-0.9,0-1.8,0.4-2.3,1.1c-0.8,0.9-1.4,1.9-1.8,3.1c-0.4,1.3-0.7,2.6-0.7,4
		c-0.1,0.8,0.2,1.6,0.6,2.2C775.7,450,776.3,450.3,777,450.2L777,450.2z"/>
	<path class="st0" d="M798.8,447.7c0.1,1.5-0.6,3-1.7,3.9c-1.4,1-3.1,1.5-4.8,1.4c-1.6,0-3.3-0.3-4.7-1v-3c1.4,0.8,3,1.3,4.6,1.3
		c0.8,0,1.6-0.2,2.3-0.6c0.6-0.3,0.9-1,0.9-1.6c0-0.5-0.2-0.9-0.5-1.3c-0.6-0.6-1.3-1.1-2.1-1.4c-1-0.5-1.9-1.2-2.6-2
		c-0.5-0.7-0.8-1.6-0.8-2.4c-0.1-1.4,0.5-2.7,1.6-3.6c1.2-0.9,2.7-1.4,4.2-1.3c1.8,0,3.5,0.4,5.1,1.2l-1.1,2.6
		c-1.2-0.7-2.5-1.1-3.9-1.1c-0.6,0-1.2,0.1-1.7,0.5c-0.4,0.3-0.7,0.8-0.7,1.4c0,0.4,0.2,0.9,0.5,1.2c0.6,0.5,1.3,1,2,1.3
		c0.8,0.4,1.5,0.9,2.2,1.5c0.4,0.4,0.7,0.8,1,1.4C798.7,446.6,798.8,447.2,798.8,447.7z"/>
	<path class="st0" d="M437.8,93.8c-7.1-5.6-17.5-8.6-32.1-8.6c-6.6-0.1-13.3,0.5-19.8,1.8c-4.7,1.3-9.2,3.4-13.1,6.3
		c-3.3,2.5-5.9,5.9-7.5,9.7c-1.5,3.7-2.3,7.6-2.2,11.6v4.1c-0.4,1.1,0.4,1.9,1.5,1.9h17.9c0.8-0.1,1.4-0.7,1.5-1.5
		c0.3-4,1.9-7.8,4.5-10.8c3-3.4,8.6-5.2,16.8-5.2c3.5-0.1,7.1,0.4,10.4,1.5c2.3,0.9,4.5,2.1,6.3,3.7c2.7,2.7,4.3,6.3,4.5,10.1v5.2
		c0,1.8-0.4,3.6-1.1,5.2c-0.6,1.4-1.5,2.7-2.6,3.7c-0.8,1.1-1.8,1.9-3,2.6c-0.8,0.6-1.7,1.1-2.6,1.5c-0.4,0.4-1.9,0.8-4.9,1.9
		s-5.6,2.2-9.3,3.4s-7.5,2.2-11.2,3.7s-7.1,2.2-10.1,3.4c-5.9,1.9-10.8,5.9-13.8,11.2c-3.1,5.1-4.8,10.9-4.8,16.8v11.6
		c0.2,3.3,0.9,6.6,1.9,9.7c1.2,3.8,3.4,7.1,6.3,9.7c3.6,3.5,7.9,6,12.7,7.5c6.9,2.1,14.1,3.1,21.3,3c7.2,0.3,14.4-0.7,21.3-3
		c4.8-1.5,9.3-4.1,13-7.5c3-2.6,5.2-5.9,6.4-9.7c1.2-3.1,1.8-6.4,1.9-9.7v-73.1C447.9,107,444.2,99.1,437.8,93.8z M422.1,194.9
		c-3,3-9,4.8-16.8,4.8s-13.4-1.5-16.4-4.5c-3.3-4-4.9-9-4.5-14.2c0-2.6,0.4-5.6,1.9-7.8c1.2-1.9,2.5-3.7,4.1-5.2
		c1.5-1.1,3.7-2.2,5.6-3.4c2.2-1.1,5.6-1.9,8.2-3c2.6-1.2,5.4-2.2,8.2-3c3-0.7,5.6-1.9,8.2-2.6c1.3-0.4,2.6-1,3.7-1.9
		c1.4-0.8,2.3-2.2,2.6-3.7l-0.4,30.6C426.9,186,425.3,191,422.1,194.9L422.1,194.9z"/>
	<path class="st0" d="M342.3,85.2h11.9c0.8,0.1,1.4,0.7,1.5,1.5V87l-4.1,15.7c0,0.8-0.7,1.1-1.5,1.1h-8.2c-3.7-0.1-7.4,0.5-10.8,1.9
		c-2.4,0.9-4.6,2.3-6.3,4.1c-1.3,1.4-2.4,3-3,4.8c-0.4,1.6-0.7,3.2-0.8,4.8v97c0.1,1-0.7,1.8-1.6,1.9c-0.1,0-0.1,0-0.2,0h-17.9
		c-0.9-0.1-1.6-0.9-1.5-1.9v-101c0-2.6,0.4-5.3,1.1-7.8c0.7-3.8,2.6-7.3,5.2-10.1c3.6-3.7,7.9-6.7,12.7-8.6
		C326.2,86,334.3,84.7,342.3,85.2z"/>
	<path class="st0" d="M281.5,183.6v4.5c0,2.8-0.4,5.5-1.1,8.2c-0.8,3.8-2.6,7.2-5.2,10.1c-3.6,3.7-7.9,6.7-12.7,8.6
		c-7.5,2.7-15.5,4-23.5,3.7c-8,0.2-16-1-23.5-3.7c-4.8-1.8-9.2-4.8-12.7-8.6c-2.6-2.8-4.4-6.3-5.2-10.1c-0.8-2.6-0.8-5.2-1.1-7.8
		V86.7c-0.1-1,0.7-1.8,1.6-1.9c0.1,0,0.1,0,0.2,0h17.5c1-0.1,1.8,0.7,1.9,1.7c0,0.1,0,0.1,0,0.2v94.8c0.1,2.4,0.3,4.7,0.8,7.1
		c0.6,1.9,1.7,3.7,3,5.2c1.7,1.9,3.9,3.3,6.3,4.1c3.6,1.2,7.4,1.8,11.2,1.9c3.9,0.1,7.9-0.5,11.6-1.9c2.4-0.7,4.6-2,6.3-3.7
		c1.5-1.3,2.5-3,3-4.9c0.8-2.4,1.1-4.9,1.1-7.5V86.7c-0.1-0.9,0.6-1.8,1.5-1.9h17.9c1-0.1,1.8,0.7,1.9,1.7c0,0.1,0,0.1,0,0.2
		L281.5,183.6z"/>
	<path class="st0" d="M159.5,37H177c1-0.1,1.8,0.7,1.9,1.6c0,0.1,0,0.2,0,0.2v178c0.1,1-0.7,1.8-1.7,1.9c-0.1,0-0.1,0-0.2,0h-17.5
		c-1,0.1-1.8-0.7-1.9-1.7c0-0.1,0-0.1,0-0.2v-178C158,37.7,158.7,37,159.5,37z"/>
	<path class="st0" d="M55.4,265.1c0.1-1.8,1.5-3.3,3.4-3.4h21.3c1.8,0.1,3.3,1.5,3.4,3.4v117.8c-0.1,1.8-1.5,3.3-3.4,3.4H58.8
		c-1.8-0.1-3.3-1.5-3.4-3.4C55.4,382.9,55.4,265.1,55.4,265.1z"/>
	<path class="st0" d="M113.9,263.2c0.1-1.8,1.6-3.2,3.4-3.2h4.4l71,68.3h0.2v-63.2c0-1.9,1.5-3.4,3.4-3.4l0,0h21.3
		c1.8,0.1,3.3,1.5,3.4,3.4v119.7c-0.1,1.8-1.6,3.2-3.4,3.2h-2.8c-0.8-0.1-1.6-0.4-2.3-0.9l-70.3-70.6H142v66.4
		c0,1.9-1.5,3.4-3.4,3.4l0,0h-21.1c-1.8-0.1-3.3-1.5-3.4-3.4L113.9,263.2z"/>
	<path class="st0" d="M306.8,260c17.8,0,31,5.5,43,16.5c1.4,1.1,1.6,3.2,0.5,4.7c-0.1,0.1-0.2,0.2-0.3,0.3L336.1,296
		c-1.2,1.2-3.2,1.2-4.4,0l0,0c-6.6-5.8-15.2-9.1-24-9.1c-20.1,0-34.9,16.7-34.9,36.6c0,19.8,15,36.1,35,36.1c8.7,0,17.1-3,23.8-8.5
		c1.4-1.1,3.3-1,4.6,0.2l13.9,14.7c1.2,1.4,1.1,3.5-0.2,4.8c-11.6,11.2-27.1,17.4-43.2,17.3c-35.4,0-64-28.7-64-64
		S271.4,260,306.8,260L306.8,260z"/>
	<path class="st0" d="M371.3,265.1c0-1.9,1.5-3.4,3.4-3.4h21.2c1.8,0.1,3.3,1.5,3.4,3.4v95h42.3c1.9,0,3.4,1.5,3.4,3.4l0,0v19.4
		c0,1.9-1.5,3.4-3.4,3.4l0,0h-66.9c-1.9,0-3.4-1.5-3.4-3.4l0,0V265.1z"/>
	<path class="st0" d="M459,265.1c0.1-1.8,1.5-3.3,3.4-3.4h21.9c1.9,0,3.4,1.5,3.4,3.4l0,0v72c0,12.5,9.2,22.4,21.9,22.4
		c12.8,0,22.2-10,22.2-22.4v-72c0-1.9,1.5-3.4,3.4-3.4l0,0h21.9c1.8,0.1,3.3,1.5,3.4,3.4v73.5c0,27-22.8,49.5-50.9,49.5
		c-27.9,0-50.5-22.4-50.5-49.5L459,265.1z"/>
	<path class="st0" d="M589.1,265.1c0-1.8,1.4-3.3,3.2-3.4h43.4c34.3,0,62.4,27.9,62.4,62.1c0,34.5-28,62.4-62.4,62.4h-43.4
		c-1.8-0.1-3.2-1.6-3.2-3.4V265.1z M633.9,360c20.1,0,34.7-15.8,34.7-36.1c0-20.1-14.6-35.9-34.7-35.9h-17.1v72H633.9z"/>
	<path class="st0" d="M719.9,265.1c0-1.9,1.5-3.4,3.4-3.4l0,0h73.6c1.9,0,3.4,1.5,3.4,3.4l0,0v19.4c0,1.9-1.5,3.4-3.4,3.4l0,0h-49.3
		V310h40.6c1.8,0.1,3.3,1.5,3.4,3.4v19.4c0,1.9-1.5,3.4-3.4,3.4l0,0h-40.6v24h49.3c1.9,0,3.4,1.5,3.4,3.4l0,0V383
		c0,1.9-1.5,3.4-3.4,3.4l0,0h-73.6c-1.9,0-3.4-1.5-3.4-3.4l0,0V265.1z"/>
	<path class="st0" d="M130,93.8c-7.1-5.6-17.5-8.6-32.1-8.6c-6.6-0.1-13.3,0.5-19.8,1.8c-4.8,1.1-9.2,3.3-13,6.3
		c-3.3,2.5-5.9,5.9-7.5,9.7c-1.5,3.7-2.2,7.6-2.2,11.6v4.5c-0.1,1,0.7,1.8,1.6,1.9c0.1,0,0.1,0,0.2,0h17.5c0.8-0.1,1.4-0.7,1.5-1.5
		c0.3-4,1.9-7.8,4.5-10.8c3-3.4,8.6-5.2,16.8-5.2c3.5-0.4,7.1,0,10.5,1.1c2.3,0.9,4.5,2.1,6.3,3.7c2.7,2.6,4.3,6.3,4.5,10.1v5.2
		c0,1.8-0.4,3.6-1.1,5.2c-0.6,1.4-1.5,2.7-2.6,3.7c-0.8,1.1-1.8,1.9-3,2.6c-0.8,0.6-1.7,1.1-2.6,1.5c-0.4,0.4-1.9,0.8-4.8,1.9
		s-5.6,2.2-9.3,3.4s-7.4,2.2-11.2,3.7S77,147.8,74,149c-5.8,1.9-10.8,5.9-13.8,11.2c-3.1,5.1-4.8,10.9-4.9,16.8v11.5
		c0.2,3.3,0.9,6.6,1.9,9.7c1.2,3.8,3.4,7.1,6.3,9.7c3.6,3.5,7.9,6,12.7,7.5c6.9,2.1,14.1,3.1,21.3,3c7.2,0.3,14.4-0.7,21.3-3
		c4.8-1.5,9.3-4.1,13.1-7.5c3-2.6,5.2-5.9,6.3-9.7c1.2-3.1,1.8-6.4,1.9-9.7v-73.1C140.1,107,136.4,99.1,130,93.8z M114.7,194.9
		c-3,3-8.6,4.8-16.8,4.8s-13.8-1.5-16.8-4.5c-3.3-4-4.9-9-4.5-14.2c0-2.7,0.7-5.4,1.8-7.8c1.2-1.9,2.5-3.6,4.1-5.2
		c1.5-1.1,3.7-2.2,5.6-3.4c2.2-1.1,5.6-1.9,8.2-3c2.6-1.2,5.4-2.2,8.2-3c3-0.7,5.6-1.9,8.2-2.6c1.3-0.4,2.6-1,3.7-1.9
		c1.4-0.8,2.3-2.2,2.6-3.7V181C119.7,186.1,118,191.1,114.7,194.9z"/>
</g>
</svg>
