<svg width="24" height="24" viewBox="0 0 24 24" fill="none" xmlns="http://www.w3.org/2000/svg">
<g clip-path="url(#clip0_1468_194)">
<path d="M11.9994 0C18.6227 0 24 5.37734 24 12.0006C24 18.6227 18.6227 24 11.9994 24C5.37734 24 0 18.6227 0 12.0006C0 5.37734 5.37734 0 11.9994 0V0ZM11.9994 1.80045C6.36999 1.80045 1.80045 6.37119 1.80045 12.0006C1.80045 17.63 6.36999 22.1995 11.9994 22.1995C17.6288 22.1995 22.1995 17.63 22.1995 12.0006C22.1995 6.37119 17.6288 1.80045 11.9994 1.80045V1.80045ZM16.8534 8.53053C16.5713 8.53053 14.5824 9.2219 11.9994 9.2219C9.39955 9.2219 7.44906 8.53053 7.14539 8.53053C6.69047 8.53053 6.32078 8.90022 6.32078 9.35514C6.32078 9.73683 6.59085 10.0741 6.95814 10.1581C7.69392 10.3502 8.47172 10.5098 9.06587 10.8087C9.6168 11.086 10.0033 11.4881 10.0033 12.177C10.0033 14.6101 8.4117 16.8822 7.77074 17.9589C7.77074 17.9589 7.77074 17.9589 7.76954 17.9601C7.69752 18.0861 7.65911 18.229 7.65911 18.373C7.65911 18.8279 8.02881 19.1976 8.48492 19.1976C8.70458 19.1976 8.91343 19.1112 9.07067 18.9527C9.6072 18.4138 10.6707 16.8114 11.1568 16.0372C11.398 15.6543 11.6321 15.2918 12.0042 15.2906C12.3667 15.2918 12.602 15.6543 12.842 16.0372C13.3281 16.8114 14.3916 18.4138 14.9281 18.9527C15.0842 19.1112 15.293 19.1976 15.5151 19.1976C15.97 19.1976 16.3397 18.8279 16.3397 18.373C16.3397 18.2302 16.3025 18.0885 16.2221 17.9493C16.2221 17.9481 16.2209 17.9481 16.2209 17.9469C15.5643 16.8438 13.9955 14.6125 13.9955 12.177C13.9955 11.4461 14.4384 11.0296 15.017 10.7535C15.6399 10.457 16.4177 10.319 17.0359 10.1593C17.408 10.0741 17.6792 9.73683 17.6792 9.35514C17.6792 8.90022 17.3083 8.53053 16.8534 8.53053V8.53053ZM12.0162 4.794C10.9659 4.794 10.1113 5.64981 10.1113 6.70608C10.1113 7.76114 10.9659 8.61695 12.0162 8.61695C13.0677 8.61695 13.9199 7.76114 13.9199 6.70608C13.9199 5.64981 13.0677 4.794 12.0162 4.794Z" fill="#FF00D0"/>
</g>
<defs>
<clipPath id="clip0_1468_194">
<rect width="24" height="24" fill="white"/>
</clipPath>
</defs>
</svg>
